<svg width="237" height="124" viewBox="0 0 237 124" fill="none" xmlns="http://www.w3.org/2000/svg">
<path d="M5.62727 100.449C7.41535 105.72 11.8549 110.2 19.1037 113.591C26.365 116.987 36.1414 119.13 47.8821 119.816C71.3427 121.187 101.86 116.695 133.782 105.868C165.703 95.0404 192.655 80.0385 210.441 64.6774C219.341 56.9901 225.796 49.3414 229.493 42.2283C233.183 35.1274 233.981 28.8711 232.193 23.5996C230.405 18.328 225.965 13.8483 218.717 10.4578C211.455 7.06143 201.679 4.91841 189.938 4.23241C166.478 2.86164 135.96 7.35298 104.039 18.1805C72.1173 29.008 45.165 44.0099 27.3796 59.371C18.4791 67.0583 12.0239 74.707 8.32741 81.8201C4.63724 88.921 3.8392 95.1773 5.62727 100.449Z" fill="url(#paint0_linear_270_4)" stroke="#006CA2" stroke-width="7.5"/>
<defs>
<linearGradient id="paint0_linear_270_4" x1="78.9594" y1="23.9564" x2="135.734" y2="111.624" gradientUnits="userSpaceOnUse">
<stop offset="0.3299" stop-color="#40C0E7"/>
<stop offset="0.33" stop-color="#006CA2"/>
<stop offset="0.6599" stop-color="#006CA2"/>
<stop offset="0.66" stop-color="#40C0E7"/>
</linearGradient>
</defs>
</svg>
